
        <svg xmlns="http://www.w3.org/2000/svg" xmlns:xlink="http://www.w3.org/1999/xlink" version="1.1" width="3200" 
        height="2729.3411510221968" viewBox="0 0 3200 2729.3411510221968">
			
			<g transform="scale(10) translate(10, 10)">
				<defs id="SvgjsDefs1557"><linearGradient id="SvgjsLinearGradient1564"><stop id="SvgjsStop1565" stop-color="#905e26" offset="0"></stop><stop id="SvgjsStop1566" stop-color="#f5ec9b" offset="0.5"></stop><stop id="SvgjsStop1567" stop-color="#905e26" offset="1"></stop></linearGradient><linearGradient id="SvgjsLinearGradient1568"><stop id="SvgjsStop1569" stop-color="#905e26" offset="0"></stop><stop id="SvgjsStop1570" stop-color="#f5ec9b" offset="0.5"></stop><stop id="SvgjsStop1571" stop-color="#905e26" offset="1"></stop></linearGradient><linearGradient id="SvgjsLinearGradient1572"><stop id="SvgjsStop1573" stop-color="#905e26" offset="0"></stop><stop id="SvgjsStop1574" stop-color="#f5ec9b" offset="0.5"></stop><stop id="SvgjsStop1575" stop-color="#905e26" offset="1"></stop></linearGradient></defs><g id="SvgjsG1558" featureKey="symbolContainer" transform="matrix(1.6231376111261318,0,0,1.6231376111261318,63.93910619745813,4.046535730061614)" fill="url(#SvgjsLinearGradient1564)"><path xmlns="http://www.w3.org/2000/svg" d="M104.6 41.3a52.2 52.2 0 0 0-3.5-11.2A51.1 51.1 0 0 0 44.3 1a49.6 49.6 0 0 0-5.7 1.5 49.1 49.1 0 0 0-7.9 2.7A51.6 51.6 0 0 0 6.3 77a53.7 53.7 0 0 0 4.1 6.4 57 57 0 0 0 5 5.7 51.7 51.7 0 0 0 55.3 11.5l3.3-1.4 3-1.5a50.9 50.9 0 0 0 5.8-3.8l2.7-2.1 1.2-1.1 1.1-.9 2-1.8.7-.6.6-.7 1.8-2a48.5 48.5 0 0 0 5.9-8.3 50.4 50.4 0 0 0 5.6-14.7 51.6 51.6 0 0 0 .2-20.4zM87.1 88.6l-1.2 1.1-1.2 1.1-2.6 2.1a49.5 49.5 0 0 1-5.7 3.6l-3 1.5-3.2 1.3-4.9 1.6h-.5a50.9 50.9 0 0 1-20.3.1 51.8 51.8 0 0 1-11.1-3.6A50.5 50.5 0 0 1 22.9 91a52 52 0 0 1-9.1-9.4 50.3 50.3 0 0 1-3.7-5.7c-.6-1-1.1-2-1.6-3.1s-1-2.1-1.3-3.2a50.6 50.6 0 0 1 8.6-50.8l.8-.8.5-.6.6-.6 1.2-1.1 2.4-2.1A50.5 50.5 0 0 1 62.4 3.2a48.5 48.5 0 0 1 14.7 5.2 47 47 0 0 1 8.3 5.8l2 1.8.7.6.6.7 1.8 2a49.7 49.7 0 0 1 11.3 22.9 50.8 50.8 0 0 1-.1 20.2 51.6 51.6 0 0 1-3.6 11 50.2 50.2 0 0 1-6.6 10.5l-2.1 2.4zm-44.9 13a50.1 50.1 0 0 1-13.7-5 51.8 51.8 0 0 1-6.2-4 55.2 55.2 0 0 1-5.5-4.8 49.9 49.9 0 0 1-11-53.2c.4-1.1.9-2.1 1.3-3.1l.6-1.3a50.2 50.2 0 0 0-3.4 11 51.3 51.3 0 0 0 2.4 28.5c.4 1.1.9 2.2 1.4 3.2s1 2.1 1.6 3.1a50.6 50.6 0 0 0 3.7 5.8 51.5 51.5 0 0 0 9.2 9.5 50.9 50.9 0 0 0 10.7 6.5 51 51 0 0 0 28.7 3.9 50.3 50.3 0 0 1-19.8-.1zm61.9-39.9a50.2 50.2 0 0 1-5.5 14.7 48.4 48.4 0 0 1-5.8 8.3l-1.8 2-.6.7-.7.6-1.9 1.7h.2l2.3-2.4 2.1-2.5A51.3 51.3 0 0 0 98.9 74a51.4 51.4 0 0 0 3.2-31.6 49.6 49.6 0 0 0-2.5-8.2 49.4 49.4 0 0 0-3.1-6.5 48.7 48.7 0 0 0-5.9-8.3l-1.8-2-.6-.7-.7-.6-2-1.8A49.9 49.9 0 0 0 77.3 8a49.3 49.3 0 0 0-6.5-3.2 49.8 49.8 0 0 0-8.2-2.6A52.2 52.2 0 0 0 49.9 1a50.8 50.8 0 0 1 22.7 3.2l3.2 1.3 3.1 1.6a50.1 50.1 0 0 1 5.7 3.7l2.6 2.1 1.2 1.1 1.2 1.1 2.3 2.3 2.1 2.4a50.4 50.4 0 0 1 6.5 10.5 51.6 51.6 0 0 1 3.6 11 51.1 51.1 0 0 1 0 20.3z"></path></g><g id="SvgjsG1559" featureKey="monogramFeature-0" transform="matrix(3.310447596271478,0,0,3.310447596271478,83.85240293924971,-73.15030426443776)" fill="url(#SvgjsLinearGradient1568)"><path d="M25.2 53.1 l-17.34 1.98 l-1.08 3.36 c-2.4 7.38 -3.84 13.92 -3.78 14.76 c0.06 0.9 0.48 1.62 1.5 1.56 c3.36 -0.18 10.62 -2.04 15.6 -3.6 c3.78 -1.2 5.52 -2.04 6.06 -2.52 c0.54 -0.54 2.16 0.36 1.56 0.84 c-0.6 0.54 -3.96 2.16 -7.92 3.3 c-3.96 1.2 -10.32 2.94 -13.56 3.06 c-2.22 0.12 -2.82 0 -3.06 -0.3 c-0.3 -0.24 -1.26 -1.14 -1.32 -2.22 s0.78 -6.42 3.3 -15.12 c0.24 -0.9 0.54 -1.86 0.9 -2.94 c-1.86 0.24 -3.18 0.36 -3.36 0.36 c-0.72 0.06 -0.36 -1.14 0.3 -1.26 c0.48 -0.12 1.8 -0.24 3.48 -0.48 c2.04 -6.3 5.04 -14.46 7.38 -20.46 c-4.8 1.2 -8.52 2.52 -9.3 2.88 c-1.14 0.54 -1.44 -0.72 -0.42 -1.44 c0.78 -0.6 4.74 -2.04 10.38 -3.12 c1.14 -2.88 2.1 -5.1 2.52 -6 c1.5 -3.12 1.8 -3.24 2.04 -3.48 c0.18 -0.24 1.38 -0.3 0.72 0.42 c-0.6 0.78 -0.9 1.5 -0.96 2.22 c-0.06 0.66 -0.72 1.26 -2.7 6.54 c1.38 -0.24 2.88 -0.48 4.5 -0.66 c8.76 -1.08 15.18 -0.96 16.68 -0.9 s0.54 0.84 -0.3 0.9 c-2.64 0.12 -8.16 -0.18 -16.08 1.14 c-1.86 0.3 -3.72 0.72 -5.4 1.08 l-0.12 0.36 c-2.1 5.7 -4.86 13.62 -7.08 20.34 c4.68 -0.54 11.1 -1.2 13.74 -1.56 c4.08 -0.54 4.26 -1.02 4.44 -0.66 c0.12 0.36 -0.3 1.5 -1.32 1.62 z"></path></g><g id="SvgjsG1560" featureKey="nameFeature-0" transform="matrix(1.891670570604116,0,0,1.891670570604116,-5.296672546386137,176.28362271540283)" fill="url(#SvgjsLinearGradient1572)"><path d="M22.96 15.920000000000002 l-15.88 0 l0 7.96 l13.84 0 l0 3.76 l-13.84 0 l0 8.4 l15.84 0 l0 3.96 l-20.12 0 l0 -28 l20.16 0 l0 3.92 z M39.446 40.52 c-8.36 0 -14.6 -6.28 -14.6 -14.56 c0 -8.24 6.24 -14.48 14.56 -14.48 c7.08 0 11.84 4.16 13.32 8.76 l-4.2 1.04 c-1.16 -3.12 -4.48 -5.76 -9.12 -5.76 c-6.16 0 -10.16 4.76 -10.16 10.4 c0 5.68 4 10.52 10.16 10.52 c4.6 0 7.96 -2.52 9.08 -5.68 l4.2 1.08 c-1.48 4.56 -6.24 8.68 -13.24 8.68 z M68.892 40.52 c-8.36 0 -14.6 -6.28 -14.6 -14.56 c0 -8.24 6.24 -14.48 14.6 -14.48 c8.32 0 14.56 6.24 14.56 14.48 c0 8.28 -6.24 14.56 -14.56 14.56 z M68.892 36.52 c6.12 0 10.2 -4.72 10.2 -10.6 c0 -5.72 -4.08 -10.44 -10.2 -10.44 c-6.16 0 -10.24 4.72 -10.24 10.44 c0 5.88 4.08 10.6 10.24 10.6 z M104.37799999999999 40 l-6.84 -10.4 l-7.08 0 l0 10.4 l-4.32 0 l0 -28 l13.32 0 c5.92 0 9.2 4.56 9.2 8.84 c0 3.68 -2.28 7.28 -6.52 8.4 l7.24 10.76 l-5 0 z M90.458 15.879999999999999 l0 9.88 l8.76 0 c3.28 0 5.24 -2.32 5.24 -4.92 s-2 -4.96 -5.12 -4.96 l-8.88 0 z M131.064 12 l4.36 0 l0 28 l-3.64 0 l-15.52 -20.28 l0 20.28 l-4.36 0 l0 -28 l3.64 0 l15.52 20.28 l0 -20.28 z M150.43 40.52 c-6.6 0 -11.12 -4.04 -12.6 -8.44 l4.12 -1.24 c1.2 3.24 4.32 5.84 8.72 5.84 c3.88 0 6.36 -2.16 6.36 -4.36 c0 -1.84 -1.16 -3.04 -4.44 -4.08 l-7.04 -2.24 c-3.72 -1.16 -6.28 -3.32 -6.28 -6.84 c0 -4.16 4.04 -7.68 9.68 -7.68 c5.96 0 10.16 3.16 11.76 6.96 l-4.04 1.2 c-1.28 -2.56 -4.08 -4.32 -7.72 -4.32 c-3.16 0 -5.32 1.72 -5.32 3.72 c0 1.6 1.04 2.56 3.56 3.32 l6.88 2.2 c4.32 1.36 7.32 3.16 7.32 7.48 c0 4.68 -4.4 8.48 -10.96 8.48 z"></path></g>
			</g>
		</svg>
	